<?xml version="1.0" encoding="utf-8"?>
<!-- Generator: Adobe Illustrator 16.0.0, SVG Export Plug-In . SVG Version: 6.00 Build 0)  -->
<!DOCTYPE svg PUBLIC "-//W3C//DTD SVG 1.1//EN" "http://www.w3.org/Graphics/SVG/1.1/DTD/svg11.dtd">
<svg version="1.1" id="Layer_1" xmlns="http://www.w3.org/2000/svg" xmlns:xlink="http://www.w3.org/1999/xlink" x="0px" y="0px"
	 width="400px" height="123px" viewBox="0 0 400 123" enable-background="new 0 0 400 123" xml:space="preserve">
<g>
	<g>
		<path fill="#FFFFFF" d="M137,85.359V37.331h10.225v48.029H137z"/>
		<path fill="#FFFFFF" d="M176.385,85.359V64.333c0-4.824-2.52-6.48-6.408-6.48c-3.601,0-6.337,2.016-7.921,4.032v23.475h-9.145
			V50.58h9.145v4.464c2.232-2.592,6.553-5.329,12.169-5.329c7.705,0,11.376,4.32,11.376,11.089v24.555H176.385z"/>
		<path fill="#FFFFFF" d="M192.871,76.646V58.573h-5.76V50.58h5.76v-9.505h9.145v9.505h7.057v7.993h-7.057v15.625
			c0,2.232,1.152,3.889,3.168,3.889c1.369,0,2.664-0.504,3.168-1.08l1.945,6.984c-1.369,1.225-3.816,2.232-7.633,2.232
			C196.256,86.223,192.871,82.91,192.871,76.646z"/>
		<path fill="#FFFFFF" d="M209.502,67.934c0-10.081,7.49-18.218,18.002-18.218c10.441,0,17.426,7.777,17.426,19.081v2.16h-25.85
			c0.648,4.249,4.104,7.777,10.008,7.777c2.953,0,6.984-1.225,9.217-3.385l4.105,6.049c-3.457,3.168-8.93,4.824-14.33,4.824
			C217.496,86.223,209.502,79.094,209.502,67.934z M227.504,57.205c-5.688,0-8.137,3.96-8.496,7.417h17.137
			C235.857,61.309,233.553,57.205,227.504,57.205z"/>
		<path fill="#FFFFFF" d="M247.951,85.359V50.58h9.145v4.68c2.52-3.024,6.768-5.544,11.088-5.544v8.929
			c-0.648-0.144-1.439-0.216-2.52-0.216c-3.025,0-7.057,1.728-8.568,3.96v22.971H247.951z"/>
		<path fill="#FFFFFF" d="M270.27,85.359V37.331h9.145v48.029H270.27z"/>
		<path fill="#FFFFFF" d="M308.359,85.359v-4.393c-2.377,2.592-6.553,5.256-12.242,5.256c-7.633,0-11.232-4.176-11.232-10.945V50.58
			h9.145v21.098c0,4.824,2.52,6.408,6.408,6.408c3.529,0,6.338-1.943,7.922-3.96V50.58h9.145v34.779H308.359z"/>
		<path fill="#FFFFFF" d="M346.877,85.359v-4.465c-2.736,3.456-6.48,5.328-10.729,5.328c-8.713,0-15.408-6.625-15.408-18.289
			c0-11.305,6.551-18.218,15.408-18.218c4.105,0,7.992,1.728,10.729,5.329V37.331h9.217v48.029H346.877z M346.877,74.126V61.813
			c-1.512-2.304-4.824-3.96-7.848-3.96c-5.258,0-8.857,4.104-8.857,10.081c0,6.049,3.6,10.152,8.857,10.152
			C342.053,78.086,345.365,76.43,346.877,74.126z"/>
		<path fill="#FFFFFF" d="M359.332,67.934c0-10.081,7.488-18.218,18.002-18.218c10.441,0,17.426,7.777,17.426,19.081v2.16h-25.852
			c0.648,4.249,4.105,7.777,10.01,7.777c2.951,0,6.984-1.225,9.217-3.385l4.104,6.049c-3.455,3.168-8.928,4.824-14.328,4.824
			C367.324,86.223,359.332,79.094,359.332,67.934z M377.334,57.205c-5.689,0-8.137,3.96-8.498,7.417h17.139
			C385.686,61.309,383.383,57.205,377.334,57.205z"/>
	</g>
	<path fill="#FFFFFF" d="M65,1.777c-33.137,0-60,26.862-60,60c0,33.137,26.863,60,60,60s60-26.863,60-60
		C125,28.639,98.137,1.777,65,1.777z M35,68.777c0,2.761-2.239,5-5,5h-2c-2.762,0-5-2.239-5-5v-14c0-2.761,2.238-5,5-5h2
		c2.761,0,5,2.239,5,5V68.777z M53,80.777c0,2.761-2.239,5-5,5h-2c-2.762,0-5-2.239-5-5v-50c0-2.761,2.238-5,5-5h2
		c2.761,0,5,2.239,5,5V80.777z M71,104.777c0,2.761-2.239,5-5,5h-2c-2.762,0-5-2.239-5-5v-86c0-2.761,2.238-5,5-5h2
		c2.761,0,5,2.239,5,5V104.777z M89,92.777c0,2.762-2.239,5-5,5h-2c-2.761,0-5-2.238-5-5v-50c0-2.761,2.239-5,5-5l2,0
		c2.761,0,5,2.238,5,5V92.777z M107,68.777c0,2.762-2.238,5-5,5h-2c-2.762,0-5-2.238-5-5v-14c0-2.762,2.238-5,5-5h2
		c2.762,0,5,2.238,5,5V68.777z"/>
</g>
</svg>
