<?xml version="1.0" encoding="utf-8"?>
<!-- Generator: Adobe Illustrator 16.0.0, SVG Export Plug-In . SVG Version: 6.00 Build 0)  -->
<!DOCTYPE svg PUBLIC "-//W3C//DTD SVG 1.1//EN" "http://www.w3.org/Graphics/SVG/1.1/DTD/svg11.dtd">
<svg version="1.1" id="Layer_1" xmlns="http://www.w3.org/2000/svg" xmlns:xlink="http://www.w3.org/1999/xlink" x="0px" y="0px"
	 width="216px" height="216px" viewBox="0 0 216 216" enable-background="new 0 0 216 216" xml:space="preserve">
<path fill="#FFFFFF" d="M108,0C48.353,0,0,48.352,0,108c0,59.646,48.353,108,108,108c59.646,0,108-48.354,108-108
	C216,48.352,167.646,0,108,0z M54,120.6c0,4.971-4.031,9-9,9h-3.6c-4.971,0-9-4.029-9-9V95.4c0-4.97,4.029-9,9-9H45
	c4.969,0,9,4.03,9,9V120.6z M86.4,142.199c0,4.971-4.031,9-9,9h-3.6c-4.971,0-9-4.029-9-9V52.2c0-4.97,4.029-9,9-9h3.6
	c4.969,0,9,4.03,9,9V142.199z M118.8,185.399c0,4.972-4.03,9.001-9,9.001h-3.6c-4.971,0-9-4.029-9-9.001V30.6c0-4.97,4.029-9,9-9
	h3.6c4.97,0,9,4.03,9,9V185.399z M151.2,163.801c0,4.97-4.031,9-9,9H138.6c-4.969,0-9-4.03-9-9v-90c0-4.97,4.031-9,9-9.001
	l3.601,0.001c4.969-0.001,9,4.029,9,9V163.801z M183.6,120.601c0,4.97-4.028,9-9,9H171c-4.971,0-9-4.03-9-9v-25.2
	c0-4.971,4.029-9,9-9h3.6c4.972,0,9,4.029,9,9V120.601z"/>
</svg>
