<?xml version="1.0" encoding="iso-8859-1"?>
<!-- Generator: Adobe Illustrator 18.1.1, SVG Export Plug-In . SVG Version: 6.00 Build 0)  -->
<svg xmlns="http://www.w3.org/2000/svg" xmlns:xlink="http://www.w3.org/1999/xlink" version="1.1" id="Capa_1" x="0px" y="0px" viewBox="0 0 268.477 268.477" style="enable-background:new 0 0 268.477 268.477;" xml:space="preserve" width="512px" height="512px">
<g id="Collection">
	<path style="fill-rule:evenodd;clip-rule:evenodd;" d="M223.73,208.815V59.662c0-8.238-6.677-14.915-14.916-14.915h-11.932v143.187   c0,4.942-4.007,8.949-8.949,8.949H44.745v11.931c0,8.237,6.679,14.916,14.916,14.916h149.153   C217.052,223.73,223.73,217.052,223.73,208.815z M253.56,89.492h-11.932V232.68c0,4.942-4.007,8.949-8.948,8.949H89.492v11.932   c0,8.237,6.677,14.916,14.915,14.916H253.56c8.238,0,14.916-6.679,14.916-14.916V104.408   C268.477,96.17,261.799,89.492,253.56,89.492z M89.492,71.481c-9.948,0-18.011,8.064-18.011,18.011   c0,9.947,8.064,18.011,18.011,18.011c9.947,0,18.011-8.064,18.011-18.011C107.503,79.545,99.439,71.481,89.492,71.481z    M178.985,164.069V14.916C178.985,6.679,172.306,0,164.07,0H14.915C6.678,0,0,6.679,0,14.916v149.153   c0,8.237,6.678,14.916,14.915,14.916H164.07C172.306,178.985,178.985,172.306,178.985,164.069z M89.492,134.238   c-24.713,0-44.747-20.034-44.747-44.746c0-24.712,20.034-44.745,44.747-44.745s44.746,20.033,44.746,44.745   C134.238,114.205,114.205,134.238,89.492,134.238z" fill="#FFFFFF"/>
</g>
<g>
</g>
<g>
</g>
<g>
</g>
<g>
</g>
<g>
</g>
<g>
</g>
<g>
</g>
<g>
</g>
<g>
</g>
<g>
</g>
<g>
</g>
<g>
</g>
<g>
</g>
<g>
</g>
<g>
</g>
</svg>
