<?xml version="1.0" encoding="iso-8859-1"?>
<!-- Generator: Adobe Illustrator 18.1.1, SVG Export Plug-In . SVG Version: 6.00 Build 0)  -->
<svg xmlns="http://www.w3.org/2000/svg" xmlns:xlink="http://www.w3.org/1999/xlink" version="1.1" id="Capa_1" x="0px" y="0px" viewBox="0 0 286.387 286.387" style="enable-background:new 0 0 286.387 286.387;" xml:space="preserve" width="512px" height="512px">
<g id="Group">
	<path style="fill-rule:evenodd;clip-rule:evenodd;" d="M143.193,143.313c25.104,0,44.629-26.037,44.629-52.99v-8.444   c0-26.952-19.525-46.076-44.629-46.076c-25.105,0-44.63,19.123-44.63,46.076v8.444C98.563,117.276,118.088,143.313,143.193,143.313   z M53.779,152.03c7.178,0,26.821-9.313,26.821-28.637v-14.319c0-19.325-14.17-28.638-26.821-28.638   c-12.231,0-26.82,9.313-26.82,28.638v14.319C26.959,142.717,46.983,152.03,53.779,152.03z M214.479,187.834   c-0.014-0.14-0.056-0.273-0.07-0.412c-0.21-1.686-0.532-3.335-0.979-4.95c0-0.015,0-0.028-0.014-0.042   c-0.937-3.433-2.518-6.74-4.88-9.998v-0.014c-3.874-5.362-9.718-10.831-19.213-16.164c-5.02-2.819-7.23-4.111-10.333-4.111   c-4.936,0-9.243,3.838-16.499,10.501h-0.015l-6.6,6.068c-0.238,0.225-7.354,10.278-12.682,10.278s-12.445-10.054-12.683-10.278   l-6.6-6.068h-0.014c-7.256-6.663-11.563-10.501-16.499-10.501c-3.104,0-5.874,1.292-10.333,4.111   c-9.206,5.811-15.341,10.795-19.199,16.149l-0.015,0.007c-0.014,0.014-0.014,0.036-0.027,0.048   c-2.336,3.231-3.902,6.517-4.838,9.929c-0.013,0.028-0.029,0.063-0.04,0.097c-0.435,1.603-0.757,3.23-0.966,4.901   c-0.014,0.155-0.056,0.301-0.071,0.455c-0.196,1.776-0.307,3.587-0.307,5.467c0,0.209-0.004,39.195,0,39.377   c0,12.724,4.796,17.898,17.898,17.898h107.39c13.215,0,17.898-4.895,17.898-17.898c0.004-0.182-0.001-39.168-0.001-39.377   C214.786,191.428,214.674,189.617,214.479,187.834z M232.764,152.03c7.177,0,26.822-9.313,26.822-28.637v-14.319   c0-19.325-14.17-28.638-26.822-28.638c-12.232,0-26.821,9.313-26.821,28.638v14.319C205.943,142.717,225.967,152.03,232.764,152.03   z M20.366,171.411c-16.655,9.481-20.36,24.597-20.36,34.427c0,0.153-0.014,17.759,0,17.898c0,12.99,4.363,17.899,17.898,17.899   h35.797c0,0,0-38.034,0-53.696l-8.949-8.949C35.284,170.642,27.302,167.468,20.366,171.411z M53.701,187.939   C53.898,188.109,53.701,183.689,53.701,187.939L53.701,187.939z M286.381,205.838c0-9.831-3.706-24.947-20.36-34.427   c-6.936-3.943-14.918-0.769-24.386,7.58l-8.949,8.949c0,15.661,0,53.696,0,53.696h35.797c13.535,0,17.898-4.909,17.898-17.899   C286.395,223.597,286.381,205.992,286.381,205.838z M232.685,187.939C232.685,183.689,232.489,188.109,232.685,187.939   L232.685,187.939z" fill="#FFFFFF"/>
</g>
<g>
</g>
<g>
</g>
<g>
</g>
<g>
</g>
<g>
</g>
<g>
</g>
<g>
</g>
<g>
</g>
<g>
</g>
<g>
</g>
<g>
</g>
<g>
</g>
<g>
</g>
<g>
</g>
<g>
</g>
</svg>
