<?xml version="1.0" encoding="iso-8859-1"?>
<!-- Generator: Adobe Illustrator 18.1.1, SVG Export Plug-In . SVG Version: 6.00 Build 0)  -->
<svg xmlns="http://www.w3.org/2000/svg" xmlns:xlink="http://www.w3.org/1999/xlink" version="1.1" id="Capa_1" x="0px" y="0px" viewBox="0 0 286.277 286.277" style="enable-background:new 0 0 286.277 286.277;" xml:space="preserve" width="512px" height="512px">
<g id="Volume_none">
	<path style="fill-rule:evenodd;clip-rule:evenodd;" d="M245.102,143.151l36.98-37.071c5.593-5.605,5.593-14.681,0-20.284   l-10.124-10.142c-5.593-5.604-14.655-5.604-20.247,0l-36.98,37.071l-36.977-37.043c-5.594-5.603-14.654-5.603-20.247,0   l-10.124,10.143c-5.594,5.603-5.594,14.679,0,20.282l36.987,37.053l-36.961,37.051c-5.591,5.604-5.591,14.681,0,20.284   l10.126,10.141c5.593,5.604,14.654,5.604,20.247,0l36.96-37.05l36.97,37.035c5.592,5.605,14.654,5.605,20.247,0l10.124-10.141   c5.593-5.603,5.593-14.68,0-20.282L245.102,143.151z M108.674,48.296L44.747,98.42H17.9c-13.228,0-17.899,4.826-17.899,17.898   L0,142.719l0.001,27.295c0,13.072,4.951,17.898,17.899,17.898h26.847l63.927,50.068c7.667,4.948,16.557,6.505,16.557-7.365V55.662   C125.23,41.792,116.341,43.349,108.674,48.296z" fill="#FFFFFF"/>
</g>
<g>
</g>
<g>
</g>
<g>
</g>
<g>
</g>
<g>
</g>
<g>
</g>
<g>
</g>
<g>
</g>
<g>
</g>
<g>
</g>
<g>
</g>
<g>
</g>
<g>
</g>
<g>
</g>
<g>
</g>
</svg>
