<?xml version="1.0" encoding="iso-8859-1"?>
<!-- Generator: Adobe Illustrator 18.1.1, SVG Export Plug-In . SVG Version: 6.00 Build 0)  -->
<svg xmlns="http://www.w3.org/2000/svg" xmlns:xlink="http://www.w3.org/1999/xlink" version="1.1" id="Capa_1" x="0px" y="0px" viewBox="0 0 286.375 286.375" style="enable-background:new 0 0 286.375 286.375;" xml:space="preserve" width="512px" height="512px">
<g id="Playlist">
	<path style="fill-rule:evenodd;clip-rule:evenodd;" d="M264.003,192.408H111.865c-12.356,0-22.373,10.017-22.373,22.373   c0,12.356,10.017,22.373,22.373,22.373h152.138c12.355,0,22.372-10.017,22.372-22.373   C286.375,202.424,276.357,192.408,264.003,192.408z M264.003,120.814H111.865c-12.356,0-22.373,10.017-22.373,22.373   c0,12.356,10.017,22.373,22.373,22.373h152.138c12.355,0,22.372-10.017,22.372-22.373   C286.375,130.831,276.357,120.814,264.003,120.814z M111.865,93.966h152.138c12.355,0,22.372-10.017,22.372-22.372   c0-12.357-10.017-22.373-22.372-22.373H111.865c-12.356,0-22.373,10.016-22.373,22.373C89.492,83.95,99.509,93.966,111.865,93.966z    M49.221,192.408H22.373C10.018,192.408,0,202.424,0,214.781c0,12.356,10.018,22.373,22.373,22.373h26.848   c12.356,0,22.373-10.017,22.373-22.373C71.594,202.424,61.577,192.408,49.221,192.408z M49.221,120.814H22.373   C10.018,120.814,0,130.831,0,143.187c0,12.356,10.018,22.373,22.373,22.373h26.848c12.356,0,22.373-10.017,22.373-22.373   C71.594,130.831,61.577,120.814,49.221,120.814z M49.221,49.221H22.373C10.018,49.221,0,59.237,0,71.594   C0,83.95,10.018,93.966,22.373,93.966h26.848c12.356,0,22.373-10.017,22.373-22.372C71.594,59.237,61.577,49.221,49.221,49.221z" fill="#FFFFFF"/>
</g>
<g>
</g>
<g>
</g>
<g>
</g>
<g>
</g>
<g>
</g>
<g>
</g>
<g>
</g>
<g>
</g>
<g>
</g>
<g>
</g>
<g>
</g>
<g>
</g>
<g>
</g>
<g>
</g>
<g>
</g>
</svg>
