<?xml version="1.0" encoding="iso-8859-1"?>
<!-- Generator: Adobe Illustrator 18.1.1, SVG Export Plug-In . SVG Version: 6.00 Build 0)  -->
<svg xmlns="http://www.w3.org/2000/svg" xmlns:xlink="http://www.w3.org/1999/xlink" version="1.1" id="Capa_1" x="0px" y="0px" viewBox="0 0 286.374 286.374" style="enable-background:new 0 0 286.374 286.374;" xml:space="preserve" width="512px" height="512px">
<g id="Micro__x2F__Recording">
	<path style="fill-rule:evenodd;clip-rule:evenodd;" d="M143.187,187.933c32.126,0,58.17-26.043,58.17-58.17V58.17   c0-32.126-26.044-58.17-58.17-58.17c-32.126,0-58.17,26.043-58.17,58.17v71.594C85.017,161.89,111.061,187.933,143.187,187.933z    M246.103,102.916c0-7.414-6.011-13.424-13.424-13.424c-7.414,0-13.424,6.01-13.424,13.424c0,0.612,0.101,1.196,0.18,1.787   c-0.115,0.85-0.18,1.742-0.18,2.688v26.848c0,39.474-33.576,71.54-74.788,71.54c-41.214,0-77.348-32.066-77.348-71.54V107.39   c0-0.757-0.114-1.447-0.237-2.13c0.135-0.764,0.237-1.541,0.237-2.344c0-7.414-6.01-13.424-13.424-13.424   c-7.414,0-13.424,6.01-13.424,13.424c0,0.803,0.101,1.58,0.237,2.344c-0.123,0.683-0.237,1.373-0.237,2.13l-0.001,30.427   c0,50.382,39.701,87.87,89.492,94.862v26.848H85.017c-0.797,0-1.519,0.114-2.242,0.225c-0.73-0.123-1.468-0.225-2.233-0.225   c-7.414,0-13.424,6.01-13.424,13.424c0,7.414,6.01,13.424,13.424,13.424c0.765,0,1.503-0.102,2.233-0.225   c0.723,0.111,1.445,0.225,2.242,0.225h116.34c0.797,0,1.519-0.114,2.241-0.225c0.73,0.123,1.468,0.225,2.233,0.225   c7.414,0,13.424-6.01,13.424-13.424c0-7.414-6.009-13.424-13.424-13.424c-0.765,0-1.503,0.102-2.233,0.225   c-0.723-0.111-1.444-0.225-2.241-0.225h-44.747v-26.848c49.792-6.992,89.492-44.48,89.492-94.862l0.001-30.427   c0-0.767-0.113-1.476-0.232-2.179C246.002,104.462,246.103,103.702,246.103,102.916z" fill="#FFFFFF"/>
</g>
<g>
</g>
<g>
</g>
<g>
</g>
<g>
</g>
<g>
</g>
<g>
</g>
<g>
</g>
<g>
</g>
<g>
</g>
<g>
</g>
<g>
</g>
<g>
</g>
<g>
</g>
<g>
</g>
<g>
</g>
</svg>
