<?xml version="1.0" encoding="iso-8859-1"?>
<!-- Generator: Adobe Illustrator 18.1.1, SVG Export Plug-In . SVG Version: 6.00 Build 0)  -->
<svg xmlns="http://www.w3.org/2000/svg" xmlns:xlink="http://www.w3.org/1999/xlink" version="1.1" id="Capa_1" x="0px" y="0px" viewBox="0 0 286.375 286.375" style="enable-background:new 0 0 286.375 286.375;" xml:space="preserve" width="512px" height="512px">
<g id="Repeat_playlist">
	<path style="fill-rule:evenodd;clip-rule:evenodd;" d="M227.925,196.882l58.45-62.644h-36.15   c-4.593-65.016-58.749-116.34-124.936-116.34C56.09,17.898,0,73.989,0,143.188c0,69.198,56.09,125.289,125.289,125.289   c30.038,0,57.592-10.592,79.171-28.215l-31.934-31.935c-13.275,9.643-29.565,15.403-47.237,15.403   c-44.484,0-80.543-36.059-80.543-80.543c0-44.484,36.059-80.544,80.543-80.544c41.455,0,75.562,31.327,80.018,71.594h-35.272   L227.925,196.882z" fill="#91DC5A"/>
</g>
<g>
</g>
<g>
</g>
<g>
</g>
<g>
</g>
<g>
</g>
<g>
</g>
<g>
</g>
<g>
</g>
<g>
</g>
<g>
</g>
<g>
</g>
<g>
</g>
<g>
</g>
<g>
</g>
<g>
</g>
</svg>
