<?xml version="1.0" encoding="iso-8859-1"?>
<!-- Generator: Adobe Illustrator 18.1.1, SVG Export Plug-In . SVG Version: 6.00 Build 0)  -->
<svg xmlns="http://www.w3.org/2000/svg" xmlns:xlink="http://www.w3.org/1999/xlink" version="1.1" id="Capa_1" x="0px" y="0px" viewBox="0 0 286.374 286.374" style="enable-background:new 0 0 286.374 286.374;" xml:space="preserve" width="512px" height="512px">
<g id="Mix_playlist">
	<path style="fill-rule:evenodd;clip-rule:evenodd;" d="M157.507,121.709c7.074-11.495,15.899-14.318,30.428-14.318h35.796v26.847   l62.643-48.326l-62.643-50.115v26.848h-35.796c-11.215,0-23.689,3.999-33.504,7.913c-17.898,7.119-29.281,19.368-36.902,36.832   c-4.097,9.397-4.95,30.988-10.851,42.957c-8.837,17.898-20.556,28.636-35.084,28.636H0l0.001,44.747h71.593   c6.74,0,21.897-4,31.713-7.915c17.898-7.117,29.743-19.227,42.398-46.843C151.089,157.212,153.926,127.526,157.507,121.709z    M99.043,123.428c0.041-0.238,0.084-0.475,0.126-0.699c1.398-7.887,2.74-15.34,5.229-21.073   c3.803-8.725,8.696-15.968,14.235-22.429c-4.67-3.579-9.676-6.418-15.327-8.67c-9.816-3.914-20.498-7.913-31.713-7.913H0.001   L0,107.389h71.594C82.277,107.389,91.422,113.235,99.043,123.428z M223.731,178.984l-37.587-0.001   c-12.25,0-19.129-2.349-25.24-9.871c-0.671,2.084-1.384,4.083-2.181,5.831c-6.195,13.507-12.473,23.883-19.48,32.162   c4.516,3.369,9.398,6.418,15.186,8.711c9.816,3.915,22.289,7.915,33.504,7.915h35.796v26.847l62.643-50.116l-62.643-48.325V178.984   z" fill="#FFFFFF"/>
</g>
<g>
</g>
<g>
</g>
<g>
</g>
<g>
</g>
<g>
</g>
<g>
</g>
<g>
</g>
<g>
</g>
<g>
</g>
<g>
</g>
<g>
</g>
<g>
</g>
<g>
</g>
<g>
</g>
<g>
</g>
</svg>
