<?xml version="1.0" encoding="iso-8859-1"?>
<!-- Generator: Adobe Illustrator 17.1.0, SVG Export Plug-In . SVG Version: 6.00 Build 0)  -->
<!DOCTYPE svg PUBLIC "-//W3C//DTD SVG 1.1//EN" "http://www.w3.org/Graphics/SVG/1.1/DTD/svg11.dtd">
<svg xmlns="http://www.w3.org/2000/svg" xmlns:xlink="http://www.w3.org/1999/xlink" version="1.1" id="Capa_1" x="0px" y="0px" viewBox="0 0 352.214 352.214" style="enable-background:new 0 0 352.214 352.214;" xml:space="preserve" width="512px" height="512px">
<g>
	<path d="M306.78,134.119c3.26-1.166,6.216-3.137,8.555-5.791l0.369-0.418c7.539-8.551,6.717-21.641-1.834-29.181l-45.647-40.251   c-3.779-3.333-8.634-5.168-13.669-5.168c-5.935,0-11.589,2.552-15.509,6.997l-0.376,0.425c-1.853,2.101-3.229,4.506-4.095,7.084   c-10.61-4.573-21.856-7.938-33.566-9.927V42h6.393c11.363,0,20.607-9.245,20.607-20.607v-0.785C228.008,9.245,218.764,0,207.4,0   h-62.785c-11.363,0-20.607,9.245-20.607,20.607v0.785c0,11.363,9.244,20.607,20.607,20.607h7.393v15.756   C81.705,69.301,27.894,130.48,27.894,204c0,81.726,66.488,148.214,148.213,148.214c81.726,0,148.214-66.488,148.214-148.214   C324.32,178.746,317.965,154.951,306.78,134.119z M176.106,316.214c-61.874,0-112.213-50.339-112.213-112.214   S114.232,91.786,176.106,91.786c61.875,0,112.214,50.339,112.214,112.214S237.981,316.214,176.106,316.214z" fill="#FFFFFF"/>
	<path d="M191.008,177.583V133c0-8.284-6.716-15-15-15c-8.284,0-15,6.716-15,15v44.697c-8.778,5.186-14.683,14.742-14.683,25.656   c0,16.422,13.359,29.783,29.781,29.783c16.422,0,29.782-13.36,29.782-29.783C205.889,192.358,199.895,182.742,191.008,177.583z" fill="#FFFFFF"/>
</g>
<g>
</g>
<g>
</g>
<g>
</g>
<g>
</g>
<g>
</g>
<g>
</g>
<g>
</g>
<g>
</g>
<g>
</g>
<g>
</g>
<g>
</g>
<g>
</g>
<g>
</g>
<g>
</g>
<g>
</g>
</svg>
