<?xml version="1.0" encoding="iso-8859-1"?>
<!-- Generator: Adobe Illustrator 18.1.1, SVG Export Plug-In . SVG Version: 6.00 Build 0)  -->
<svg xmlns="http://www.w3.org/2000/svg" xmlns:xlink="http://www.w3.org/1999/xlink" version="1.1" id="Capa_1" x="0px" y="0px" viewBox="0 0 286.374 286.374" style="enable-background:new 0 0 286.374 286.374;" xml:space="preserve" width="512px" height="512px">
<g id="Volume_2">
	<path style="fill-rule:evenodd;clip-rule:evenodd;" d="M233.636,26.767l-33.372,28.5c25.659,21.07,42.006,52.616,42.006,87.92   c0,35.305-16.347,66.851-42.006,87.921l33.372,28.499c32.324-28.869,52.738-70.268,52.738-116.421   C286.374,97.034,265.96,55.635,233.636,26.767z M177.737,74.513l-34.69,29.64c15.14,6.818,27.19,21.681,27.19,39.034   s-12.05,32.216-27.19,39.034l34.69,29.64c21.294-15.717,36.051-40.586,36.051-68.674C213.788,115.099,199.03,90.23,177.737,74.513z    M108.672,48.317L44.746,98.441H17.898C4.671,98.441,0,103.268,0,116.34v53.695c0,13.072,4.951,17.898,17.898,17.898h26.848   l63.926,50.068c7.668,4.948,16.558,6.505,16.558-7.365V55.683C125.23,41.813,116.34,43.37,108.672,48.317z" fill="#FFFFFF"/>
</g>
<g>
</g>
<g>
</g>
<g>
</g>
<g>
</g>
<g>
</g>
<g>
</g>
<g>
</g>
<g>
</g>
<g>
</g>
<g>
</g>
<g>
</g>
<g>
</g>
<g>
</g>
<g>
</g>
<g>
</g>
</svg>
