<?xml version="1.0" encoding="iso-8859-1"?>
<!-- Generator: Adobe Illustrator 18.1.1, SVG Export Plug-In . SVG Version: 6.00 Build 0)  -->
<svg xmlns="http://www.w3.org/2000/svg" xmlns:xlink="http://www.w3.org/1999/xlink" version="1.1" id="Capa_1" x="0px" y="0px" viewBox="0 0 268.476 268.476" style="enable-background:new 0 0 268.476 268.476;" xml:space="preserve" width="512px" height="512px">
<g id="Track__x2F__Note">
	<path style="fill-rule:evenodd;clip-rule:evenodd;" d="M93.373,23.911c-17.952,2.954-21.778,14.56-21.778,27.267v157.276   c-5.484-1.678-11.531-2.623-17.899-2.623c-24.711,0-44.746,14.018-44.746,31.322c0,17.304,20.035,31.322,44.746,31.322   c24.711,0,44.746-14.018,44.746-31.322c0-1.587-0.223-3.134-0.548-4.657l0.548,0.183V103.555L232.68,84.378v106.179   c-5.484-1.678-11.531-2.623-17.899-2.623c-24.71,0-44.746,14.018-44.746,31.322c0,17.304,20.036,31.322,44.746,31.322   c23.836,0,43.266-13.054,44.615-29.508l0.131,0.031V0L93.373,23.911z" fill="#FFFFFF"/>
</g>
<g>
</g>
<g>
</g>
<g>
</g>
<g>
</g>
<g>
</g>
<g>
</g>
<g>
</g>
<g>
</g>
<g>
</g>
<g>
</g>
<g>
</g>
<g>
</g>
<g>
</g>
<g>
</g>
<g>
</g>
</svg>
